# xmcd CD database file
#
# Track frame offsets:
#	150
#	21715
#	54940
#	82330
#	114157
#	144580
#	165097
#	195705
#	219557
#	229915
#
# Disc length: 3254 seconds
#
# Revision: 0
# Processed by: cddbd v1.5.2PL0 Copyright (c) Steve Scherf et al.
# Submitted via: CDex 1.51
#
DISCID=870cb40a
DTITLE=Makoto Ozone - 07 Walk Alone
DYEAR=1992
DGENRE=Jazz
TTITLE0=Big Apple Pie
TTITLE1=Autumn in New York
TTITLE2=Walk Alone
TTITLE3=Lost in the Village
TTITLE4=How Long Has This Been Going On?
TTITLE5=Prelude (For Elenor)
TTITLE6=The Beginning of Love
TTITLE7=Cross Town Traffic
TTITLE8=Thinking Back
TTITLE9=Dreams Will Rise Again
EXTD=YEAR: 1992
EXTT0=
EXTT1=
EXTT2=
EXTT3=
EXTT4=
EXTT5=
EXTT6=
EXTT7=
EXTT8=
EXTT9=
PLAYORDER=
